<svg width="127" height="133" viewBox="0 0 127 133" fill="none" xmlns="http://www.w3.org/2000/svg">
<path fill-rule="evenodd" clip-rule="evenodd" d="M105.12 35.0698C105.76 36.3898 106.3 37.9498 106.59 40.0098C108.64 38.3698 110.17 36.2598 110.41 35.1498C110.87 33.1698 110.48 31.5498 109.93 30.2898C113.31 25.4698 115.4 18.9598 112.02 13.0898C105.33 14.1198 101.55 19.8198 99.9002 25.4798C98.5802 25.8398 97.0702 26.5398 95.8102 28.1398C95.1002 29.0298 94.4202 31.5498 94.4102 34.1698C96.2102 33.0998 97.7502 32.5498 99.1902 32.2298C99.1858 32.2802 99.1806 32.3347 99.175 32.3927C99.1043 33.1302 98.9794 34.4327 99.8602 34.8498L102.66 36.1898C103.543 36.6081 104.478 35.6958 105.007 35.1797C105.047 35.1405 105.085 35.1037 105.12 35.0698ZM109.99 23.0998C110.59 21.8598 110.07 20.3698 108.83 19.7798C107.59 19.1798 106.11 19.7098 105.51 20.9398C104.91 22.1798 105.43 23.6698 106.67 24.2598C107.91 24.8598 109.4 24.3398 109.99 23.0998Z" fill="#D0D0D0"/>
<path d="M80.6012 83.9785C87.7612 75.5485 97.3514 60.8185 103.911 49.1385C109.091 39.9285 96.0713 31.4385 89.8013 39.9285C89.7713 39.9684 89.7438 40.0059 89.7164 40.0433C89.6888 40.0809 89.6615 40.1184 89.6314 40.1585C88.4861 41.7481 87.6104 43.5304 86.7372 45.3081C86.3524 46.0914 85.9682 46.8738 85.5614 47.6385C81.8166 54.66 80.9514 56.3739 77.0122 64.1784C76.1547 65.8773 75.1515 67.8648 73.9413 70.2585C72.8313 72.4485 69.6913 78.5285 65.8913 84.7285C65.7559 84.9481 65.6134 85.1836 65.4627 85.4324C64.8447 86.4524 64.0898 87.6982 63.1413 89.0085C60.7612 92.3185 57.2012 96.0485 51.7412 97.5585C50.9112 97.7785 50.0915 97.9285 49.2715 98.0085C40.7114 98.8685 33.1813 93.8985 30.9412 83.1385C30.2812 79.9585 30.2613 75.9485 31.2313 71.3885C29.7713 75.4085 29.4515 77.8685 29.2812 81.3285C29.2812 90.1385 33.7015 96.4585 39.5415 100.739C44.0915 103.599 48.3012 104.569 53.7412 103.949C64.7751 102.681 72.2773 93.8148 79.5263 85.2475C79.8851 84.8234 80.2433 84.4001 80.6012 83.9785Z" fill="#D0D0D0"/>
<path d="M13.9123 24.4501L47.2723 93.5401C51.2423 93.0801 57.4723 90.8701 60.6423 83.6901L27.9123 17.0801C26.5523 14.5801 23.9423 13.0101 21.0923 13.0001C21.0123 13.0001 20.9423 13.0001 20.8623 13.0001C14.9623 12.9701 11.1623 19.2401 13.9123 24.4501Z" fill="#0093ED"/>
<path d="M87.0109 82.6484C78.1209 93.4884 69.2209 105.958 54.4609 107.818C55.9609 110.758 57.4409 113.658 58.9409 116.598C61.2609 121.158 67.7809 121.148 70.0909 116.588C75.9109 105.148 81.3009 93.8984 87.0109 82.6484Z" fill="#0093ED"/>
</svg>
